<svg xmlns="http://www.w3.org/2000/svg" width="48" height="46" fill="none" viewBox="0 0 48 46">
  <path fill="#8a4a26" d="M10 16h24l-2.4 21.2A4 4 0 0 1 27.63 41H16.37a4 4 0 0 1-3.97-3.8L10 16Z"/>
  <path fill="#8a4a26" fill-rule="evenodd" d="M29.5 24.5a5 6.7 0 1 0 10 0 5 6.7 0 1 0-10 0ZM31.2 24.5a2.6 4.2 0 1 0 5.2 0 2.6 4.2 0 1 0-5.2 0Z"/>
  <mask id="cup" width="48" height="46" x="0" y="0" maskUnits="userSpaceOnUse" style="mask-type:alpha">
    <path fill="#000" d="M10 16h24l-2.4 21.2A4 4 0 0 1 27.63 41H16.37a4 4 0 0 1-3.97-3.8L10 16Z"/>
    <path fill="#000" fill-rule="evenodd" d="M29.5 24.5a5 6.7 0 1 0 10 0 5 6.7 0 1 0-10 0ZM31.2 24.5a2.6 4.2 0 1 0 5.2 0 2.6 4.2 0 1 0-5.2 0Z"/>
    <ellipse cx="18" cy="8" fill="#000" rx="2.4" ry="6.4" transform="rotate(-18 18 8)"/>
    <ellipse cx="24.5" cy="5.8" fill="#000" rx="2.2" ry="5.7" transform="rotate(-8 24.5 5.8)"/>
    <ellipse cx="30.5" cy="8.5" fill="#000" rx="2.2" ry="6" transform="rotate(14 30.5 8.5)"/>
  </mask>
  <g mask="url(#cup)">
    <rect width="48" height="46" fill="#3a2317"/>
    <g filter="url(#f1)">
      <ellipse cx="14" cy="34" fill="#8a4a26" rx="16" ry="18"/>
    </g>
    <g filter="url(#f2)">
      <ellipse cx="34" cy="12" fill="#e8a659" rx="14" ry="15"/>
    </g>
    <g filter="url(#f3)">
      <ellipse cx="36" cy="38" fill="#c97a37" rx="12" ry="13"/>
    </g>
    <g filter="url(#f4)">
      <ellipse cx="10" cy="6" fill="#f4d9ad" rx="9" ry="9"/>
    </g>
  </g>
  <defs>
    <filter id="f1" width="72" height="76" x="-22" y="-4" color-interpolation-filters="sRGB" filterUnits="userSpaceOnUse">
      <feFlood flood-opacity="0" result="BackgroundImageFix"/>
      <feBlend in="SourceGraphic" in2="BackgroundImageFix" result="shape"/>
      <feGaussianBlur result="effect1" stdDeviation="7"/>
    </filter>
    <filter id="f2" width="68" height="70" x="0" y="-23" color-interpolation-filters="sRGB" filterUnits="userSpaceOnUse">
      <feFlood flood-opacity="0" result="BackgroundImageFix"/>
      <feBlend in="SourceGraphic" in2="BackgroundImageFix" result="shape"/>
      <feGaussianBlur result="effect1" stdDeviation="7"/>
    </filter>
    <filter id="f3" width="64" height="66" x="4" y="5" color-interpolation-filters="sRGB" filterUnits="userSpaceOnUse">
      <feFlood flood-opacity="0" result="BackgroundImageFix"/>
      <feBlend in="SourceGraphic" in2="BackgroundImageFix" result="shape"/>
      <feGaussianBlur result="effect1" stdDeviation="7"/>
    </filter>
    <filter id="f4" width="46" height="46" x="-13" y="-17" color-interpolation-filters="sRGB" filterUnits="userSpaceOnUse">
      <feFlood flood-opacity="0" result="BackgroundImageFix"/>
      <feBlend in="SourceGraphic" in2="BackgroundImageFix" result="shape"/>
      <feGaussianBlur result="effect1" stdDeviation="6"/>
    </filter>
  </defs>
</svg>
